<svg width="180" height="48" viewBox="0 0 180 48" fill="none" xmlns="http://www.w3.org/2000/svg">
<path fill-rule="evenodd" clip-rule="evenodd" d="M26.9662 7.93105L14.5169 15.8584V0L26.9662 7.93105ZM0 26.4319L12.4449 18.5046L0 10.5735V26.4319ZM0 47.5789L12.4449 39.6479L0 31.7205V47.5789ZM29.0338 26.4319L41.4831 18.5046L29.0338 10.5735V26.4319ZM56 7.93105L43.5551 15.8584V0L56 7.93105ZM43.5551 37.0054L56 29.0744L43.5551 21.147V37.0054ZM12.4449 37.0054L0 29.0744L12.4449 21.147V37.0054ZM14.5169 18.5046L26.9662 26.4319V10.5772L14.5169 18.5046ZM12.4449 15.8584L0 7.93105L12.4449 0V15.8584ZM29.0338 7.93105L41.4788 15.8584V0L29.0338 7.93105ZM56 26.4319L43.5551 18.5046L56 10.5735V26.4319ZM43.5551 39.6479L56 47.5789V31.7205L43.5551 39.6479Z" fill="#F372EE"/>
<path d="M75.6172 17.9102C76.8411 17.9102 77.8633 16.9727 78.6836 15.0977C79.0612 14.2383 79.25 13.5417 79.25 13.0078C79.25 12.474 79.1589 12.1061 78.9766 11.9043C78.8008 11.7025 78.4492 11.6016 77.9219 11.6016C77.401 11.6016 76.8346 11.8457 76.2227 12.334C75.6172 12.8158 75.1289 13.4245 74.7578 14.1602C74.3867 14.8958 74.2012 15.5599 74.2012 16.1523C74.2012 16.7383 74.3314 17.1777 74.5918 17.4707C74.8522 17.7637 75.194 17.9102 75.6172 17.9102ZM80.6953 9.63867L85.168 9.84375C85.3372 9.84375 85.4642 9.89583 85.5488 10C85.6335 10.0977 85.6758 10.2083 85.6758 10.332C85.6758 10.8073 85.4772 11.5658 85.0801 12.6074C84.6895 13.6426 84.2956 14.6712 83.8984 15.6934C83.5078 16.709 83.3125 17.3828 83.3125 17.7148C83.3125 18.0404 83.3613 18.2487 83.459 18.3398C83.5632 18.431 83.7585 18.4766 84.0449 18.4766C84.3314 18.4766 84.8522 18.3398 85.6074 18.0664C86.3691 17.7865 86.8835 17.5749 87.1504 17.4316C87.4238 17.2884 87.6322 17.2168 87.7754 17.2168C88.0293 17.2168 88.1562 17.3307 88.1562 17.5586C88.1562 18.0404 87.1797 18.6719 85.2266 19.4531C84.569 19.7201 83.7747 19.9414 82.8438 20.1172C81.9193 20.2995 80.9785 20.3906 80.0215 20.3906C78.4264 20.3906 77.4661 19.8828 77.1406 18.8672C76.125 19.8828 74.7578 20.3906 73.0391 20.3906C71.8607 20.3906 70.8646 20.1074 70.0508 19.541C69.1654 18.9225 68.7227 17.9492 68.7227 16.6211C68.7227 15.2214 69.1361 13.9323 69.9629 12.7539C70.8678 11.4453 72.0788 10.5436 73.5957 10.0488C74.4355 9.77539 75.3372 9.63867 76.3008 9.63867C77.7786 9.63867 78.9277 10.0033 79.748 10.7324C79.7546 10.6934 79.7578 10.6315 79.7578 10.5469L79.748 10.127C79.748 9.80143 80.0638 9.63867 80.6953 9.63867ZM95.9785 10.0586L98.5469 9.72656C99.0286 9.72656 99.2695 9.91536 99.2695 10.293C99.2695 10.6706 99.0417 10.9082 98.5859 11.0059C98.1302 11.097 97.1016 11.2207 95.5 11.377C95.2786 11.9564 94.9466 12.7604 94.5039 13.7891C93.599 15.8984 93.1465 17.1647 93.1465 17.5879C93.1465 18.0501 93.4329 18.2812 94.0059 18.2812C95.8548 18.2812 97.515 17.972 98.9863 17.3535C99.2012 17.2624 99.3704 17.2168 99.4941 17.2168C99.735 17.2168 99.8555 17.3242 99.8555 17.5391C99.8555 17.7539 99.6992 17.9655 99.3867 18.1738C98.4297 18.8053 96.9876 19.3327 95.0605 19.7559C93.1335 20.179 91.3561 20.3906 89.7285 20.3906C88.804 20.3906 88.0977 20.2474 87.6094 19.9609C87.1211 19.668 86.877 19.2676 86.877 18.7598C86.877 18.2454 87.2155 17.2852 87.8926 15.8789C88.6543 14.3034 89.2012 12.9199 89.5332 11.7285C89.1296 11.748 88.8496 11.7578 88.6934 11.7578C88.3092 11.7578 88.1172 11.6016 88.1172 11.2891C88.1172 11.0612 88.179 10.9082 88.3027 10.8301C88.4264 10.752 88.5534 10.6966 88.6836 10.6641C88.8203 10.6315 88.9342 10.612 89.0254 10.6055C89.123 10.5924 89.2565 10.5794 89.4258 10.5664C89.5951 10.5534 89.7188 10.5436 89.7969 10.5371C89.8815 10.0423 89.9238 9.57682 89.9238 9.14062L89.9141 8.76953C89.9141 8.47656 90.2852 8.27799 91.0273 8.17383C91.2747 8.14128 92.0527 7.97852 93.3613 7.68555C94.6699 7.39258 95.4707 7.24609 95.7637 7.24609C96.2324 7.24609 96.4668 7.40885 96.4668 7.73438C96.4668 8.29427 96.304 9.06901 95.9785 10.0586ZM101.721 9.95117L106.35 9.84375C106.519 9.84375 106.646 9.89583 106.73 10C106.815 10.0977 106.857 10.1888 106.857 10.2734C106.857 10.3581 106.835 10.498 106.789 10.6934C106.743 10.8887 106.685 11.1263 106.613 11.4062C106.542 11.6797 106.496 11.8555 106.477 11.9336C106.984 11.3281 107.619 10.7943 108.381 10.332C109.143 9.86979 109.813 9.63867 110.393 9.63867C111.623 9.63867 112.238 9.9056 112.238 10.4395C112.238 10.9668 112.072 11.6016 111.74 12.3438C111.408 13.0794 111.096 13.5645 110.803 13.7988C110.66 13.903 110.484 13.9551 110.275 13.9551C110.074 13.9551 109.885 13.89 109.709 13.7598C108.921 13.1738 108.062 12.8809 107.131 12.8809C106.773 12.8809 106.46 12.9069 106.193 12.959C105.939 13.8314 105.536 15.1139 104.982 16.8066C104.429 18.4928 104.123 19.4336 104.064 19.6289C103.967 19.9349 103.785 20.0879 103.518 20.0879C102.574 20.0879 101.561 20.1367 100.48 20.2344C99.3997 20.3385 98.778 20.3906 98.6152 20.3906C98.459 20.3906 98.3353 20.3451 98.2441 20.2539C98.1595 20.1693 98.1172 20.0684 98.1172 19.9512C98.1172 19.8275 98.2539 19.3913 98.5273 18.6426C98.8073 17.8874 99.1133 17.0768 99.4453 16.2109C99.7839 15.3451 100.09 14.3945 100.363 13.3594C100.643 12.3242 100.783 11.4746 100.783 10.8105L100.773 10.4395C100.773 10.1139 101.089 9.95117 101.721 9.95117ZM121.389 6.23047C121.389 6.92708 121.001 7.53581 120.227 8.05664C119.458 8.57096 118.645 8.82812 117.785 8.82812C116.932 8.82812 116.268 8.6556 115.793 8.31055C115.318 7.95898 115.08 7.53255 115.08 7.03125C115.08 6.52995 115.262 6.07422 115.627 5.66406C115.992 5.25391 116.464 4.93164 117.043 4.69727C117.629 4.46289 118.264 4.3457 118.947 4.3457C119.631 4.3457 120.207 4.52799 120.676 4.89258C121.151 5.25065 121.389 5.69661 121.389 6.23047ZM118.645 18.3496C119.087 18.3496 119.686 18.2454 120.441 18.0371C121.203 17.8223 121.757 17.6335 122.102 17.4707C122.447 17.3014 122.688 17.2168 122.824 17.2168C123.098 17.2168 123.234 17.3535 123.234 17.627C123.234 17.7507 123.133 17.8906 122.932 18.0469C122.268 18.5417 121.073 19.056 119.348 19.5898C117.622 20.1237 116.083 20.3906 114.729 20.3906C113.889 20.3906 113.186 20.2572 112.619 19.9902C112.053 19.7233 111.77 19.3164 111.77 18.7695C111.77 18.4375 112.053 17.6237 112.619 16.3281C113.687 13.8737 114.221 12.0247 114.221 10.7812L114.211 10.4102C114.211 10.0846 114.527 9.92188 115.158 9.92188L119.982 9.81445C120.152 9.81445 120.279 9.86654 120.363 9.9707C120.448 10.0684 120.49 10.179 120.49 10.3027C120.49 10.752 120.285 11.4941 119.875 12.5293C119.465 13.5579 119.055 14.5703 118.645 15.5664C118.234 16.5625 118.029 17.2754 118.029 17.7051C118.029 18.1348 118.234 18.3496 118.645 18.3496ZM129.035 17.9102C130.259 17.9102 131.281 16.9727 132.102 15.0977C132.479 14.2383 132.668 13.5417 132.668 13.0078C132.668 12.474 132.577 12.1061 132.395 11.9043C132.219 11.7025 131.867 11.6016 131.34 11.6016C130.819 11.6016 130.253 11.8457 129.641 12.334C129.035 12.8158 128.547 13.4245 128.176 14.1602C127.805 14.8958 127.619 15.5599 127.619 16.1523C127.619 16.7383 127.749 17.1777 128.01 17.4707C128.27 17.7637 128.612 17.9102 129.035 17.9102ZM134.113 9.63867L138.586 9.84375C138.755 9.84375 138.882 9.89583 138.967 10C139.051 10.0977 139.094 10.2083 139.094 10.332C139.094 10.8073 138.895 11.5658 138.498 12.6074C138.107 13.6426 137.714 14.6712 137.316 15.6934C136.926 16.709 136.73 17.3828 136.73 17.7148C136.73 18.0404 136.779 18.2487 136.877 18.3398C136.981 18.431 137.176 18.4766 137.463 18.4766C137.749 18.4766 138.27 18.3398 139.025 18.0664C139.787 17.7865 140.301 17.5749 140.568 17.4316C140.842 17.2884 141.05 17.2168 141.193 17.2168C141.447 17.2168 141.574 17.3307 141.574 17.5586C141.574 18.0404 140.598 18.6719 138.645 19.4531C137.987 19.7201 137.193 19.9414 136.262 20.1172C135.337 20.2995 134.396 20.3906 133.439 20.3906C131.844 20.3906 130.884 19.8828 130.559 18.8672C129.543 19.8828 128.176 20.3906 126.457 20.3906C125.279 20.3906 124.283 20.1074 123.469 19.541C122.583 18.9225 122.141 17.9492 122.141 16.6211C122.141 15.2214 122.554 13.9323 123.381 12.7539C124.286 11.4453 125.497 10.5436 127.014 10.0488C127.854 9.77539 128.755 9.63867 129.719 9.63867C131.197 9.63867 132.346 10.0033 133.166 10.7324C133.173 10.6934 133.176 10.6315 133.176 10.5469L133.166 10.127C133.166 9.80143 133.482 9.63867 134.113 9.63867ZM146.447 13.623C146.148 14.4238 145.998 15.1595 145.998 15.8301C145.998 16.5007 146.066 17.002 146.203 17.334C146.34 17.6595 146.545 17.9102 146.818 18.0859C147.749 18.6719 149.592 18.7044 152.346 18.1836C153.654 17.9362 154.605 17.7148 155.197 17.5195C155.796 17.3177 156.148 17.2168 156.252 17.2168C156.48 17.2168 156.594 17.3275 156.594 17.5488C156.594 17.7702 156.421 17.9948 156.076 18.2227C155.165 18.8151 153.879 19.3262 152.219 19.7559C150.559 20.179 148.703 20.3906 146.652 20.3906C144.608 20.3906 143.055 20.026 141.994 19.2969C140.933 18.5677 140.402 17.5586 140.402 16.2695C140.402 15.4688 140.568 14.7135 140.9 14.0039C141.239 13.2943 141.698 12.679 142.277 12.1582C142.863 11.6309 143.544 11.1751 144.318 10.791C145.868 10.0228 147.626 9.63867 149.592 9.63867C151.883 9.63867 153.492 9.90234 154.416 10.4297C154.52 10.5143 154.572 10.6738 154.572 10.9082C154.572 11.1361 154.471 11.5169 154.27 12.0508C154.068 12.5846 153.801 13.0794 153.469 13.5352C153.143 13.9909 152.844 14.2188 152.57 14.2188C152.297 14.2188 152.079 14.0723 151.916 13.7793C151.753 13.4863 151.617 13.2487 151.506 13.0664C151.395 12.8776 151.242 12.6562 151.047 12.4023C150.852 12.1484 150.666 11.9564 150.49 11.8262C150.321 11.696 150.113 11.582 149.865 11.4844C149.618 11.3867 149.315 11.3379 148.957 11.3379C148.605 11.3379 148.251 11.4453 147.893 11.6602C147.541 11.8685 147.251 12.1419 147.023 12.4805C146.796 12.8125 146.604 13.1934 146.447 13.623ZM159.807 5.53711L164.279 5.50781C164.429 5.50781 164.549 5.55664 164.641 5.6543C164.738 5.74544 164.787 5.89844 164.787 6.11328C164.787 6.32812 164.654 6.95964 164.387 8.00781C164.12 9.04948 163.82 10.0716 163.488 11.0742C164.341 10.7096 165.285 10.3809 166.32 10.0879C167.355 9.78841 168.286 9.63867 169.113 9.63867C169.738 9.63867 170.308 9.8112 170.822 10.1562C171.395 10.5404 171.682 11.123 171.682 11.9043C171.682 12.679 171.379 13.724 170.773 15.0391C170.168 16.3542 169.865 17.194 169.865 17.5586C169.865 18.0924 170.122 18.3594 170.637 18.3594C171.652 18.3594 172.801 18.0306 174.084 17.373C174.279 17.2689 174.439 17.2168 174.562 17.2168C174.829 17.2168 174.963 17.3372 174.963 17.5781C174.963 17.8125 174.813 18.0241 174.514 18.2129C174.221 18.3952 173.85 18.5938 173.4 18.8086C172.951 19.0169 172.388 19.248 171.711 19.502C170.129 20.0944 168.439 20.3906 166.643 20.3906C164.846 20.3906 163.947 19.9479 163.947 19.0625C163.947 18.4896 164.273 17.4674 164.924 15.9961C165.581 14.5182 165.91 13.5221 165.91 13.0078C165.91 12.3893 165.458 12.0801 164.553 12.0801C164.051 12.0801 163.557 12.1582 163.068 12.3145C161.994 15.4655 161.223 17.9362 160.754 19.7266C160.721 19.8503 160.646 19.9414 160.529 20C160.419 20.0586 160.321 20.0879 160.236 20.0879L155.207 20.1953C155.135 20.1953 155.054 20.1497 154.963 20.0586C154.878 19.974 154.836 19.8665 154.836 19.7363C154.836 19.6061 155.044 18.9518 155.461 17.7734C155.884 16.5951 156.346 15.3158 156.848 13.9355C157.355 12.5553 157.818 11.1198 158.234 9.62891C158.658 8.13802 158.869 7.02799 158.869 6.29883L158.859 6.02539C158.859 5.69987 159.175 5.53711 159.807 5.53711Z" fill="black"/>
</svg>
